<?xml version="1.0" encoding="utf-8"?>
<!-- Generator: Adobe Illustrator 23.0.2, SVG Export Plug-In . SVG Version: 6.00 Build 0)  -->
<svg version="1.1" id="Слой_1" xmlns="http://www.w3.org/2000/svg" xmlns:xlink="http://www.w3.org/1999/xlink" x="0px" y="0px"
	 viewBox="0 0 512 512" style="enable-background:new 0 0 512 512;" xml:space="preserve">
<g>
	<path d="M5.9,288.6c4.36-20.14,4.68-40.94,10.26-60.91c5.7-20.41,12.26-40.38,24.53-57.95c23.21-33.23,51.52-33.4,75.22-0.43
		c3.87,5.38,7.11,11.2,10.97,17.35c1.65-1.39,2.97-2.36,4.12-3.49c22.19-21.84,45.41-16.64,66.77,6.1
		c20.8,22.15,29.22,177.75,32.51,210.3c3.27,32.37,2.75,32.42-29.78,32.42c-25.75,0-25.74,0-25.75-25.6
		c0-7.6-9.26-135.67-9.34-143.27c-0.04-3.56-0.71-6.99-5.14-7.37c-5.23-0.44-6.42,3.19-6.46,7.33
		c-0.13,13.09,0.91,146.19,1.09,159.28c0.08,5.88-0.91,9.46-8.19,9.28c-17.73-0.42-35.49-0.43-53.22,0c-7.37,0.18-8.1-3.45-8.02-9.3
		c0.22-16.05-1.07-152.1-1.12-168.15c-0.01-4.59,0.74-10.56-5.86-10.5c-6.54,0.06-5.75,6.07-5.8,10.64
		c-0.17,15.63-3.16,153.62-2.6,169.23c0.31,8.59-2.85,10.7-10.88,10.47c-18.57-0.52-37.17-0.22-55.75-0.25
		C3.46,426.16,5.9,296.2,5.9,288.6z M86.91,222.63c-0.72-5.38-4.49-6.79-8.99-6.64c-4.17,0.14-7.45,2.2-7.41,6.8
		c0.05,5.1,3.31,7.38,8.23,7.28C83.59,229.98,86.61,227.75,86.91,222.63z"/>
	<path d="M509.27,271.4c-9.24,24.17-25.72,39.8-51.88,44.01c-7.4,1.19-5.58,55.37-5.66,60.23c-0.42,22.91-1.56,51.06-24.51,51.06
		c-32.53,0-30.13-17.28-30.13-50.04c0-33.31-1.28-125.91-1.71-159.21c-0.11-8.66,2.18-12.22,11.26-11.53
		c9.22,0.7,18.55,0.46,27.81,0.1c34.9-1.38,61.51,10.77,74.82,45.1C511.86,259.91,510.08,268.81,509.27,271.4z M451.18,259.22
		c0,4.19,0.12,8.38-0.03,12.57c-0.2,5.41,1.51,7.61,7.44,6.21c13.97-3.3,20.3-19.47,11.62-30.57c-3.85-4.92-9.27-8.4-15.18-7.22
		c-7.24,1.45-4.6,6.88-4.36,12.81C450.75,255.06,451.17,257.12,451.18,259.22z"/>
	<path d="M250.93,215.82c19.42,20.75,35.19,21.08,55.89,1.47c0,34.75,0.51,135.8,0.51,169.45c0,31.02-0.74,44.04-31.27,44.04
		c-25.36,0-24.62-13.02-24.62-37.9C251.44,356.98,250.93,253.67,250.93,215.82z"/>
	<path d="M389.8,274.02c0.01,16.77-0.48,33.56,0.19,50.31c0.41,10.29-4.01,12.56-12.86,10.55c-4.67-1.06-9.42-1.79-14.01-3.11
		c-32.37-9.32-54.06-37.21-50.38-64.64c3.99-29.75,34.65-54.85,67.48-56.15c8.24-0.33,9.76,2.87,9.66,9.85
		C389.63,238.56,389.8,256.29,389.8,274.02z"/>
	<path d="M279.76,207.04c-6.31,0-12.65-0.37-18.93,0.09c-9.74,0.72-11.21-3.51-6.98-11.05c5.71-10.18,14.94-14.49,26.32-14.05
		c10.81,0.42,19.39,4.83,24.4,15c3.22,6.52,2.73,10.42-5.88,10.05C292.39,206.82,286.07,207.04,279.76,207.04z"/>
</g>
</svg>
