<?xml version="1.0" encoding="utf-8"?>
<!-- Generator: Adobe Illustrator 23.0.2, SVG Export Plug-In . SVG Version: 6.00 Build 0)  -->
<svg version="1.1" id="Слой_1" xmlns="http://www.w3.org/2000/svg" xmlns:xlink="http://www.w3.org/1999/xlink" x="0px" y="0px"
	 viewBox="0 0 256 256" style="enable-background:new 0 0 256 256;" xml:space="preserve">
<g>
	<path d="M1.51,209.51c2.56-24.34,2.75-49.48,6.03-73.62c3.35-24.66,7.2-48.81,14.41-70.04c13.63-40.16,30.27-40.37,44.2-0.52
		c2.27,6.5,4.18,13.54,6.45,20.96c0.97-1.68,1.74-2.85,2.42-4.22c13.04-26.4,24.54-25.08,35.41,5.29
		c11.72,32.76,15.54,71.33,17.47,110.67c1.92,39.12,1.61,39.18-17.5,39.18c-15.13,0-15.13,0-15.13-30.94
		c0-9.19,0.01-18.38-0.04-27.57c-0.02-4.31-0.42-8.45-3.02-8.9c-3.07-0.53-3.77,3.86-3.8,8.86c-0.07,15.83-0.15,31.66-0.04,47.48
		c0.05,7.11-0.53,11.43-4.81,11.22c-10.42-0.51-20.85-0.52-31.27,0c-4.33,0.22-4.76-4.16-4.71-11.24c0.13-19.4,0.05-38.8,0.03-58.2
		c-0.01-5.55,0.44-12.77-3.44-12.69c-3.84,0.07-3.38,7.34-3.41,12.85c-0.1,18.89-0.42,37.8-0.09,56.66
		c0.18,10.38-1.68,12.93-6.39,12.66c-10.91-0.63-21.84-0.27-32.76-0.3C1.51,227.91,1.51,218.71,1.51,209.51z M49.11,129.79
		c-0.42-6.5-2.64-8.21-5.28-8.02c-2.45,0.17-4.38,2.66-4.35,8.22c0.03,6.16,1.95,8.92,4.84,8.8
		C47.16,138.67,48.93,135.98,49.11,129.79z"/>
	<path d="M256.21,116.67c-4.24,35.1-11.8,57.79-23.81,63.91c-3.39,1.73-2.69,10.08-2.73,17.13c-0.19,33.27-0.18,33.27-10.72,33.27
		c-14.93,0-14.93,0-14.93-47.57c0-48.36,0.12-96.73-0.08-145.08c-0.05-12.57,1-17.75,5.17-16.74c4.23,1.02,8.51,0.67,12.76,0.14
		c16.02-2.01,28.23,15.64,34.34,65.48C257.4,99.98,256.58,112.91,256.21,116.67z M229.55,98.98c0,6.08,0.06,12.18-0.01,18.25
		c-0.09,7.85,0.7,11.06,3.42,9.02c6.41-4.8,9.32-28.28,5.33-44.39c-1.77-7.15-4.25-12.2-6.97-10.48c-3.32,2.1-2.11,9.99-2,18.61
		C229.35,92.94,229.55,95.94,229.55,98.98z"/>
	<path d="M137.81,74.69c9.41,24.72,17.06,25.12,27.1,1.75c0,41.4,0,81.5,0,121.59c0,36.97,0,36.97-14.81,36.97
		c-12.3,0-12.3,0-12.3-29.65C137.81,162.57,137.81,119.79,137.81,74.69z"/>
	<path d="M200.78,122.92c0,21.42-0.19,42.87,0.08,64.25c0.16,13.15-1.62,16.05-5.19,13.48c-1.88-1.36-3.8-2.29-5.66-3.98
		c-13.07-11.9-21.82-47.52-20.33-82.55c1.61-37.99,13.99-70.05,27.24-71.71c3.33-0.42,3.94,3.67,3.9,12.58
		C200.71,77.63,200.78,100.28,200.78,122.92z"/>
	<path d="M151.79,64.24c-3.06,0.01-6.13-0.44-9.18,0.11c-4.72,0.86-5.44-4.18-3.39-13.16c2.77-12.13,7.24-17.27,12.76-16.74
		c5.24,0.5,9.4,5.76,11.83,17.87c1.56,7.77,1.33,12.41-2.85,11.98C157.91,63.98,154.85,64.23,151.79,64.24z"/>
</g>
</svg>
