<?xml version="1.0" encoding="utf-8"?>
<!-- Generator: Adobe Illustrator 23.0.2, SVG Export Plug-In . SVG Version: 6.00 Build 0)  -->
<svg version="1.1" id="Слой_1" xmlns="http://www.w3.org/2000/svg" xmlns:xlink="http://www.w3.org/1999/xlink" x="0px" y="0px"
	 viewBox="0 0 512 512" style="enable-background:new 0 0 512 512;" xml:space="preserve">
<g>
	<path d="M2.84,325.36c4.36-20.14,4.68-40.94,10.26-60.91c5.7-20.41,12.26-40.38,24.53-57.95c23.21-33.23,51.52-33.4,75.22-0.43
		c3.87,5.38,7.11,11.2,10.97,17.35c1.65-1.39,2.97-2.36,4.12-3.49c22.19-21.84,41.77-20.75,60.27,4.37
		c19.94,27.1,26.44,59.02,29.73,91.57c3.27,32.37,2.75,32.42-29.78,32.42c-25.75,0-25.74,0-25.75-25.6c0-7.6,0.02-15.21-0.06-22.81
		c-0.04-3.56-0.71-6.99-5.14-7.37c-5.23-0.44-6.42,3.19-6.46,7.33c-0.13,13.09-0.25,26.19-0.07,39.28c0.08,5.88-0.91,9.46-8.19,9.28
		c-17.73-0.42-35.49-0.43-53.22,0c-7.37,0.18-8.1-3.45-8.02-9.3c0.22-16.05,0.09-32.1,0.04-48.16c-0.01-4.59,0.74-10.56-5.86-10.5
		c-6.54,0.06-5.75,6.07-5.8,10.64c-0.17,15.63-0.72,31.27-0.16,46.88c0.31,8.59-2.85,10.7-10.88,10.47
		c-18.57-0.52-37.17-0.22-55.75-0.25C2.84,340.58,2.84,332.97,2.84,325.36z M83.84,259.4c-0.72-5.38-4.49-6.79-8.99-6.64
		c-4.17,0.14-7.45,2.2-7.41,6.8c0.05,5.1,3.31,7.38,8.23,7.28C80.53,266.74,83.54,264.52,83.84,259.4z"/>
	<path d="M509.27,271.4c-9.24,24.17-25.72,39.8-51.88,44.01c-7.4,1.19-5.87,6.94-5.96,11.8c-0.42,22.91-0.4,22.91-23.35,22.91
		c-32.53,0-32.53,0-32.53-32.76c0-33.31,0.26-66.61-0.18-99.91c-0.11-8.66,2.18-12.22,11.26-11.53c9.22,0.7,18.55,0.46,27.81,0.1
		c34.9-1.38,61.51,10.77,74.82,45.1C511.86,259.91,510.08,268.81,509.27,271.4z M451.18,259.22c0,4.19,0.12,8.38-0.03,12.57
		c-0.2,5.41,1.51,7.61,7.44,6.21c13.97-3.3,20.3-19.47,11.62-30.57c-3.85-4.92-9.27-8.4-15.18-7.22c-7.24,1.45-4.6,6.88-4.36,12.81
		C450.75,255.06,451.17,257.12,451.18,259.22z"/>
	<path d="M250.93,215.82c19.42,20.75,35.19,21.08,55.89,1.47c0,34.75,0,68.4,0,102.05c0,31.02,0,31.02-30.54,31.02
		c-25.36,0-25.36,0-25.36-24.88C250.93,289.57,250.93,253.67,250.93,215.82z"/>
	<path d="M388.49,275.71c0.01,14.75-0.42,29.52,0.16,44.25c0.36,9.05-3.53,11.05-11.31,9.28c-4.1-0.93-8.29-1.58-12.33-2.74
		c-28.47-8.19-47.54-32.73-44.31-56.85c3.51-26.16,30.48-48.24,59.35-49.38c7.25-0.29,8.58,2.53,8.5,8.66
		C388.34,244.52,388.49,260.11,388.49,275.71z"/>
	<path d="M279.76,207.04c-6.31,0-12.65-0.37-18.93,0.09c-9.74,0.72-11.21-3.51-6.98-11.05c5.71-10.18,14.94-14.49,26.32-14.05
		c10.81,0.42,19.39,4.83,24.4,15c3.22,6.52,2.73,10.42-5.88,10.05C292.39,206.82,286.07,207.04,279.76,207.04z"/>
</g>
</svg>
